MimicMSK_OpenSim_coordinates_FK_5s
version=1
nRows=5
nColumns=129
inDegrees=yes

# SIMM Motion File Header:
name MimicMSK_OpenSim_coordinates_FK_5s
datacolumns 129
datarows 5
otherdata 1
range 0.00000000 0.03110000
endheader
time	root_rx	root_ry	root_rz	root_tx	root_ty	root_tz	flex_extension	lat_bending	axial_rotation	Abs_r3	Abs_t1	Abs_t2	L4_L5_FE	L4_L5_LB	L4_L5_AR	L3_L4_FE	L3_L4_LB	L3_L4_AR	L2_L3_FE	L2_L3_LB	L2_L3_AR	L1_L2_FE	L1_L2_LB	L1_L2_AR	sternoclavicular_r2_r	sternoclavicular_r3_r	unrotscap_r3_r	unrotscap_r2_r	acromioclavicular_r2_r	acromioclavicular_r3_r	acromioclavicular_r1_r	unrothum_r1_r	unrothum_r3_r	unrothum_r2_r	elv_angle_r	shoulder_elv_r	shoulder1_r2_r	shoulder_rot_r	elbow_flex_r	pro_sup_r	deviation_r	flexion_r	cmc_flexion_r	cmc_abduction_r	mp_flexion_r	ip_flexion_r	mcp2_flexion_r	mcp2_abduction_r	pm2_flexion_r	md2_flexion_r	mcp3_flexion_r	mcp3_abduction_r	pm3_flexion_r	md3_flexion_r	mcp4_flexion_r	mcp4_abduction_r	pm4_flexion_r	md4_flexion_r	mcp5_flexion_r	mcp5_abduction_r	pm5_flexion_r	md5_flexion_r	sternoclavicular_r2_l	sternoclavicular_r3_l	unrotscap_r3_l	unrotscap_r2_l	acromioclavicular_r2_l	acromioclavicular_r3_l	acromioclavicular_r1_l	unrothum_r1_l	unrothum_r3_l	unrothum_r2_l	elv_angle_l	shoulder_elv_l	shoulder1_r2_l	shoulder_rot_l	elbow_flex_l	pro_sup_l	deviation_l	flexion_l	cmc_flexion_l	cmc_abduction_l	mp_flexion_l	ip_flexion_l	mcp2_flexion_l	mcp2_abduction_l	pm2_flexion_l	md2_flexion_l	mcp3_flexion_l	mcp3_abduction_l	pm3_flexion_l	md3_flexion_l	mcp4_flexion_l	mcp4_abduction_l	pm4_flexion_l	md4_flexion_l	mcp5_flexion_l	mcp5_abduction_l	pm5_flexion_l	md5_flexion_l	hip_flexion_r	hip_adduction_r	hip_rotation_r	knee_angle_r	knee_angle_rotation2_r	knee_angle_rotation3_r	knee_angle_translation2_r	knee_angle_translation1_r	ankle_angle_r	subtalar_angle_r	mtp_angle_r	knee_angle_beta_rotation1_r	knee_angle_beta_translation2_r	knee_angle_beta_translation1_r	hip_flexion_l	hip_adduction_l	hip_rotation_l	knee_angle_l	knee_angle_rotation2_l	knee_angle_rotation3_l	knee_angle_translation2_l	knee_angle_translation1_l	ankle_angle_l	subtalar_angle_l	mtp_angle_l	knee_angle_beta_rotation1_l	knee_angle_beta_translation2_l	knee_angle_beta_translation1_l
0.00000000	-89.99999846	0.00000000	0.00000000	0.00000000	0.82500000	0.00000000	0.00000000	0.00000000	0.00000000	0.00000000	0.00000000	0.00000000	0.00000000	0.00000000	0.00000000	0.00000000	0.00000000	0.00000000	0.00000000	0.00000000	0.00000000	0.00000000	0.00000000	0.00000000	0.00000000	0.00000000	0.00000000	0.00000000	0.00000000	0.00000000	0.00000000	0.00000000	0.00000000	0.00000000	0.00000000	0.00000000	0.00000000	0.00000000	0.00000000	0.00000000	0.00000000	0.00000000	0.00000000	0.00000000	0.00000000	0.00000000	0.00000000	0.00000000	0.00000000	0.00000000	0.00000000	0.00000000	0.00000000	0.00000000	0.00000000	0.00000000	0.00000000	0.00000000	0.00000000	0.00000000	0.00000000	0.00000000	0.00000000	0.00000000	0.00000000	0.00000000	0.00000000	0.00000000	0.00000000	0.00000000	0.00000000	0.00000000	0.00000000	0.00000000	0.00000000	0.00000000	0.00000000	0.00000000	0.00000000	0.00000000	0.00000000	0.00000000	0.00000000	0.00000000	0.00000000	0.00000000	0.00000000	0.00000000	0.00000000	0.00000000	0.00000000	0.00000000	0.00000000	0.00000000	0.00000000	0.00000000	0.00000000	0.00000000	0.00000000	0.00000000	0.00000000	0.00000000	0.00000000	0.00000000	-0.00000084	0.00000062	0.00000000	0.00000010	0.00000000	0.00000000	0.00000000	0.60194946	-0.01082810	0.05241920	0.00000000	0.00000000	0.00000000	-0.00000000	-0.00000084	-0.00000062	-0.00000000	0.00000010	0.00000000	0.00000000	0.00000000	0.60194946	-0.01082810	0.05241920
0.00362000	-89.99999542	0.00000019	0.00000044	0.00000000	0.82500000	-0.00000001	0.00000148	0.00000010	-0.00000038	0.00000095	0.00000000	0.00000000	0.00000027	0.00000002	-0.00000001	0.00000030	0.00000003	-0.00000001	0.00000034	0.00000003	-0.00000001	0.00000038	0.00000002	-0.00000001	-0.00000013	0.00000005	-0.00000005	0.00000013	-0.00000003	0.00000021	0.00000009	-0.00000009	-0.00000021	0.00000003	-0.00000000	0.00000052	0.00000000	0.00003519	-0.00001375	-0.00003308	0.00002091	-0.00000038	0.00319209	0.00081748	-0.00950176	0.00863270	0.00002194	-0.00000598	-0.00000495	-0.00000347	0.00001507	-0.00000351	0.00001884	-0.00002420	0.00000694	-0.00000317	-0.00000733	-0.00000440	0.00002613	-0.00001112	-0.00003357	-0.00000469	-0.00000009	0.00000004	-0.00000004	0.00000009	-0.00000002	0.00000014	0.00000006	-0.00000006	-0.00000014	0.00000002	0.00000002	0.00000036	-0.00000002	0.00003033	-0.00000658	-0.00002964	0.00000630	-0.00004845	-0.00064017	-0.00008904	0.00235318	-0.00715130	0.00011318	0.00000705	-0.00000250	0.00001705	0.00008232	-0.00000216	0.00008938	-0.00006452	0.00004823	-0.00003376	0.00009333	-0.00004672	0.00005363	-0.00004148	0.00000662	0.00000326	0.00001067	-0.00000003	-0.00000236	0.00001811	0.00000059	0.00000732	0.00000000	0.00000010	-0.00002687	-0.00000913	0.00011500	0.60194991	-0.01082812	0.05241920	0.00001134	-0.00000117	0.00000345	0.00001964	0.00000071	-0.00000788	-0.00000000	0.00000010	-0.00002612	-0.00000473	0.00011269	0.60194995	-0.01082812	0.05241919
0.00725000	-89.99998623	0.00000075	0.00000174	0.00000000	0.82499999	-0.00000003	0.00000598	0.00000041	-0.00000149	0.00000384	0.00000000	0.00000000	0.00000111	0.00000007	-0.00000006	0.00000122	0.00000010	-0.00000006	0.00000138	0.00000010	-0.00000005	0.00000152	0.00000008	-0.00000004	-0.00000050	0.00000021	-0.00000021	0.00000050	-0.00000010	0.00000081	0.00000036	-0.00000036	-0.00000081	0.00000010	-0.00000001	0.00000205	0.00000001	0.00013892	-0.00005436	-0.00013053	0.00008262	-0.00000150	0.01261365	0.00322930	-0.03753856	0.03408560	0.00008673	-0.00002356	-0.00001956	-0.00001370	0.00005957	-0.00001382	0.00007456	-0.00009571	0.00002744	-0.00001248	-0.00002894	-0.00001740	0.00010352	-0.00004389	-0.00013291	-0.00001856	-0.00000035	0.00000015	-0.00000015	0.00000035	-0.00000007	0.00000057	0.00000025	-0.00000025	-0.00000057	0.00000007	0.00000009	0.00000143	-0.00000009	0.00011971	-0.00002608	-0.00011690	0.00002492	-0.00019159	-0.00251615	-0.00034865	0.00926550	-0.02823359	0.00044750	0.00002794	-0.00000987	0.00006741	0.00032550	-0.00000850	0.00035353	-0.00025519	0.00019071	-0.00013346	0.00036906	-0.00018471	0.00021213	-0.00016397	0.00002616	0.00001294	0.00004252	-0.00000010	-0.00000946	0.00007179	0.00000483	0.00002715	0.00000001	0.00000010	-0.00010834	-0.00003667	0.00045974	0.60195124	-0.01082816	0.05241918	0.00004520	-0.00000464	0.00001358	0.00007784	0.00000531	-0.00002938	-0.00000001	0.00000010	-0.00010536	-0.00001925	0.00045055	0.60195139	-0.01082817	0.05241918
0.01790000	-89.99992279	0.00000446	0.00001035	0.00000000	0.82499991	-0.00000019	0.00003730	0.00000242	-0.00000886	0.00002398	0.00000000	0.00000000	0.00000690	0.00000044	-0.00000033	0.00000761	0.00000059	-0.00000033	0.00000862	0.00000060	-0.00000028	0.00000951	0.00000045	-0.00000026	-0.00000289	0.00000123	-0.00000123	0.00000289	-0.00000059	0.00000474	0.00000213	-0.00000213	-0.00000474	0.00000059	-0.00000005	0.00001196	0.00000005	0.00081497	-0.00032043	-0.00076476	0.00048545	-0.00000882	0.07421102	0.01897031	-0.22072581	0.20012382	0.00051116	-0.00013716	-0.00011513	-0.00008062	0.00035098	-0.00008027	0.00044082	-0.00056487	0.00016173	-0.00007237	-0.00016972	-0.00010244	0.00061377	-0.00025704	-0.00078633	-0.00010934	-0.00000202	0.00000086	-0.00000086	0.00000202	-0.00000041	0.00000330	0.00000149	-0.00000149	-0.00000330	0.00000041	0.00000054	0.00000834	-0.00000054	0.00070185	-0.00015446	-0.00068401	0.00014689	-0.00112963	-0.01458331	-0.00199869	0.05397993	-0.16575476	0.00263801	0.00016578	-0.00005769	0.00039745	0.00191889	-0.00004956	0.00208605	-0.00150539	0.00112426	-0.00078631	0.00217638	-0.00108882	0.00125207	-0.00096598	0.00015392	0.00007682	0.00025645	-0.00000053	-0.00005762	0.00042648	0.00003289	0.00015821	0.00000004	0.00000012	-0.00067522	-0.00022631	0.00279807	0.60196002	-0.01082846	0.05241909	0.00027235	-0.00002749	0.00007931	0.00046231	0.00003572	-0.00017145	-0.00000005	0.00000012	-0.00065769	-0.00012297	0.00274346	0.60196090	-0.01082849	0.05241908
0.03110000	-89.99976686	0.00001311	0.00003033	0.00000001	0.82499974	-0.00000055	0.00011523	0.00000708	-0.00002596	0.00007408	0.00000000	0.00000000	0.00002132	0.00000128	-0.00000098	0.00002351	0.00000174	-0.00000098	0.00002662	0.00000177	-0.00000081	0.00002938	0.00000133	-0.00000075	-0.00000829	0.00000351	-0.00000351	0.00000829	-0.00000168	0.00001357	0.00000610	-0.00000610	-0.00001357	0.00000168	-0.00000019	0.00003426	0.00000019	0.00234713	-0.00092713	-0.00219884	0.00139840	-0.00002556	0.21435657	0.05463020	-0.63714911	0.57670841	0.00148103	-0.00038981	-0.00033296	-0.00023313	0.00101679	-0.00022677	0.00128199	-0.00163931	0.00046928	-0.00020419	-0.00048863	-0.00029635	0.00179182	-0.00073756	-0.00228853	-0.00031659	-0.00000577	0.00000244	-0.00000244	0.00000577	-0.00000117	0.00000944	0.00000424	-0.00000424	-0.00000944	0.00000117	0.00000151	0.00002384	-0.00000151	0.00201988	-0.00044971	-0.00196385	0.00042524	-0.00327354	-0.04142321	-0.00560128	0.15429764	-0.47812230	0.00764315	0.00048415	-0.00016548	0.00115154	0.00556007	-0.00014165	0.00605080	-0.00436554	0.00325765	-0.00227632	0.00630706	-0.00315402	0.00363329	-0.00279669	0.00044509	0.00022451	0.00076347	-0.00000121	-0.00017306	0.00124750	0.00009783	0.00046157	0.00000013	0.00000016	-0.00209057	-0.00069324	0.00843003	0.60198031	-0.01082916	0.05241887	0.00080997	-0.00008014	0.00022786	0.00135225	0.00010612	-0.00050027	-0.00000014	0.00000017	-0.00203952	-0.00039133	0.00827032	0.60198290	-0.01082925	0.05241885
